<?xml version="1.0" encoding="UTF-8" standalone="no"?>
<svg xmlns="http://www.w3.org/2000/svg"
     xmlns:svg="http://www.w3.org/2000/svg"
     version="1.1"
     width="86.6988mm" height="86.6988mm"
     viewBox="0 0 1024 1024">
  <path id="path1"
        fill="white"
        d="M 584.00,404.00
           C 592.26,399.36 610.59,383.32 619.00,376.42
             619.00,376.42 670.00,335.75 670.00,335.75
             670.00,335.75 693.00,317.63 693.00,317.63
             695.32,315.88 700.06,311.71 703.00,312.02
             705.83,312.32 713.46,319.89 716.04,322.14
             716.04,322.14 747.00,349.85 747.00,349.85
             750.10,352.58 758.47,358.27 756.83,363.00
             756.07,365.22 751.80,369.23 750.00,370.91
             750.00,370.91 733.00,385.95 733.00,385.95
             733.00,385.95 670.00,442.16 670.00,442.16
             670.00,442.16 586.00,517.42 586.00,517.42
             576.71,525.45 568.35,534.72 558.00,541.46
             531.76,558.55 503.08,560.64 475.00,546.63
             460.95,539.62 451.91,529.96 440.42,519.74
             440.42,519.74 383.00,468.42 383.00,468.42
             383.00,468.42 364.00,451.28 364.00,451.28
             364.00,451.28 337.00,427.83 337.00,427.83
             337.00,427.83 293.00,388.39 293.00,388.39
             293.00,388.39 272.04,369.09 272.04,369.09
             269.72,366.86 264.77,363.63 266.16,359.96
             267.39,356.74 277.86,348.61 281.00,345.85
             281.00,345.85 320.00,311.72 320.00,311.72
             320.00,311.72 420.00,224.72 420.00,224.72
             442.36,205.14 457.56,188.69 488.00,182.21
             493.20,181.10 497.65,180.07 503.00,180.00
             518.51,179.82 528.85,179.58 544.00,184.52
             554.85,188.05 565.67,193.66 575.00,200.21
             575.00,200.21 590.00,212.57 590.00,212.57
             590.00,212.57 642.00,258.00 642.00,258.00
             642.00,258.00 674.00,286.17 674.00,286.17
             676.62,288.53 684.18,294.20 682.84,298.04
             682.02,300.37 675.03,307.85 673.02,310.00
             673.02,310.00 653.00,331.00 653.00,331.00
             653.00,331.00 619.00,367.00 619.00,367.00
             619.00,367.00 584.00,404.00 584.00,404.00 Z
           M 228.18,398.16
           C 228.79,398.11 229.13,397.53 231.01,398.16
             233.68,399.03 244.21,408.77 247.09,411.32
             247.09,411.32 295.00,454.59 295.00,454.59
             295.00,454.59 334.00,489.83 334.00,489.83
             334.00,489.83 373.00,524.17 373.00,524.17
             373.00,524.17 435.00,580.17 435.00,580.17
             435.00,580.17 468.00,610.17 468.00,610.17
             479.18,620.29 484.91,627.44 500.00,632.25
             512.41,636.22 526.20,633.45 537.00,626.45
             537.00,626.45 548.00,617.61 548.00,617.61
             548.00,617.61 574.00,594.03 574.00,594.03
             574.00,594.03 617.00,555.83 617.00,555.83
             617.00,555.83 665.00,512.17 665.00,512.17
             665.00,512.17 734.00,450.93 734.00,450.93
             734.00,450.93 778.00,411.09 778.00,411.09
             780.81,408.48 791.67,398.00 794.91,398.16
             798.89,398.35 803.61,408.69 805.24,412.00
             813.07,427.88 817.97,445.21 818.00,463.00
             818.00,463.00 818.00,736.00 818.00,736.00
             817.93,782.13 790.81,820.92 748.00,838.00
             736.28,842.67 721.65,845.98 709.00,846.00
             709.00,846.00 310.00,846.00 310.00,846.00
             280.84,845.95 247.37,826.06 229.31,804.00
             217.01,788.97 206.03,763.61 206.00,744.00
             206.00,744.00 206.00,459.00 206.00,459.00
             206.02,444.40 211.79,426.03 218.27,413.00
             220.84,407.83 223.47,401.63 228.18,398.16 Z
           M 584.00,404.00
           C 584.00,404.00 583.00,404.00 583.00,404.00
             583.00,404.00 584.00,405.00 584.00,405.00
             584.00,405.00 584.00,404.00 584.00,404.00 Z
           M 583.00,405.00
           C 583.00,405.00 582.00,405.00 582.00,405.00
             582.00,405.00 583.00,406.00 583.00,406.00
             583.00,406.00 583.00,405.00 583.00,405.00 Z" />
</svg>
