<?xml version="1.0" encoding="UTF-8" standalone="no"?>
<svg xmlns="http://www.w3.org/2000/svg"
     xmlns:svg="http://www.w3.org/2000/svg"
     version="1.1"
     width="86.6988mm" height="86.6988mm"
     viewBox="0 0 1024 1024">
  <path id="path1"
        fill="white"
        d="M 620.00,350.00
           C 628.45,345.25 635.59,338.60 643.00,332.43
             643.00,332.43 675.00,306.28 675.00,306.28
             675.00,306.28 727.00,265.49 727.00,265.49
             727.00,265.49 748.00,248.20 748.00,248.20
             748.00,248.20 783.00,220.63 783.00,220.63
             785.65,218.64 794.41,211.43 797.00,211.01
             801.44,210.28 811.40,221.05 815.09,224.32
             815.09,224.32 865.00,268.73 865.00,268.73
             869.50,272.59 873.96,276.61 877.94,281.00
             879.76,283.00 881.84,285.08 880.83,288.00
             879.84,290.88 872.81,297.04 870.28,299.26
             870.28,299.26 846.00,321.02 846.00,321.02
             846.00,321.02 811.00,351.17 811.00,351.17
             811.00,351.17 744.00,412.13 744.00,412.13
             744.00,412.13 623.00,520.42 623.00,520.42
             608.21,533.19 594.76,548.22 578.00,558.76
             535.55,584.69 489.64,584.27 447.00,558.76
             430.99,549.49 417.87,535.51 404.00,523.28
             404.00,523.28 320.00,448.17 320.00,448.17
             320.00,448.17 234.00,371.83 234.00,371.83
             234.00,371.83 185.00,327.88 185.00,327.88
             173.03,318.49 161.88,307.68 151.01,297.04
             148.37,294.45 140.86,288.96 141.74,284.99
             142.37,282.17 145.90,279.39 148.00,277.58
             148.00,277.58 164.00,263.87 164.00,263.87
             164.00,263.87 227.00,208.72 227.00,208.72
             227.00,208.72 366.00,87.72 366.00,87.72
             366.00,87.72 421.00,40.75 421.00,40.75
             440.60,27.43 466.42,17.19 490.00,14.10
             490.00,14.10 499.00,14.10 499.00,14.10
             499.00,14.10 509.00,13.00 509.00,13.00
             509.00,13.00 523.00,14.04 523.00,14.04
             523.00,14.04 532.00,14.04 532.00,14.04
             544.06,15.34 564.90,21.45 576.00,26.48
             604.25,39.27 627.19,60.30 650.00,80.83
             650.00,80.83 711.00,134.08 711.00,134.08
             711.00,134.08 756.00,173.93 756.00,173.93
             759.49,177.09 770.76,184.98 769.37,190.03
             768.52,193.09 761.60,200.29 759.27,203.00
             759.27,203.00 729.63,234.67 729.63,234.67
             729.63,234.67 707.32,257.83 707.32,257.83
             707.32,257.83 664.00,304.00 664.00,304.00
             654.60,313.40 625.95,340.79 620.00,350.00 Z
           M 86.21,340.13
           C 90.84,339.34 92.56,341.72 96.00,344.59
             96.00,344.59 113.00,359.41 113.00,359.41
             113.00,359.41 146.00,389.83 146.00,389.83
             146.00,389.83 189.00,427.93 189.00,427.93
             189.00,427.93 253.58,486.26 253.58,486.26
             253.58,486.26 297.00,524.17 297.00,524.17
             297.00,524.17 390.00,608.17 390.00,608.17
             390.00,608.17 413.00,629.28 413.00,629.28
             413.00,629.28 447.04,660.18 447.04,660.18
             467.46,678.98 484.23,695.33 514.00,695.00
             543.58,694.66 564.93,671.79 585.00,653.09
             585.00,653.09 635.00,608.08 635.00,608.08
             635.00,608.08 678.28,569.49 678.28,569.49
             678.28,569.49 803.00,457.17 803.00,457.17
             803.00,457.17 843.00,421.92 843.00,421.92
             843.00,421.92 869.00,398.83 869.00,398.83
             869.00,398.83 889.00,380.17 889.00,380.17
             889.00,380.17 904.00,366.98 904.00,366.98
             904.00,366.98 925.00,348.00 925.00,348.00
             926.92,346.34 933.01,340.84 934.99,340.16
             938.19,339.07 940.11,341.74 941.79,344.02
             944.33,347.45 949.23,356.03 951.24,360.00
             962.42,381.99 970.96,408.13 971.00,433.00
             971.00,433.00 971.00,855.00 971.00,855.00
             970.90,921.55 922.59,981.53 861.00,1003.46
             849.89,1007.42 825.60,1012.94 814.00,1013.00
             814.00,1013.00 803.00,1013.00 803.00,1013.00
             803.00,1013.00 788.00,1014.00 788.00,1014.00
             788.00,1014.00 767.00,1014.00 767.00,1014.00
             767.00,1014.00 756.00,1013.08 756.00,1013.08
             756.00,1013.08 749.00,1013.94 749.00,1013.94
             749.00,1013.94 735.00,1013.94 735.00,1013.94
             735.00,1013.94 596.00,1013.94 596.00,1013.94
             596.00,1013.94 218.00,1013.94 218.00,1013.94
             218.00,1013.94 206.00,1013.09 206.00,1013.09
             168.47,1010.51 135.04,993.87 107.00,969.28
             100.49,963.58 93.95,957.72 88.46,951.00
             66.09,923.60 52.06,886.44 52.00,851.00
             52.00,851.00 52.00,620.00 52.00,620.00
             52.00,620.00 52.00,487.00 52.00,487.00
             52.00,487.00 53.00,464.00 53.00,464.00
             53.00,464.00 53.00,426.00 53.00,426.00
             53.07,420.14 54.18,415.65 55.34,410.00
             58.87,392.79 63.53,380.98 70.59,365.00
             73.45,358.52 80.93,344.28 86.21,340.13 Z" />
</svg>
